<?xml version="1.0" ?><!DOCTYPE svg  PUBLIC '-//W3C//DTD SVG 1.1//EN'  'http://www.w3.org/Graphics/SVG/1.1/DTD/svg11.dtd'><svg enable-background="new 0 0 512 512" height="512px" id="Calque_1" version="1.1" viewBox="0 0 512 512" width="512px" xml:space="preserve" xmlns="http://www.w3.org/2000/svg" xmlns:xlink="http://www.w3.org/1999/xlink"><g><g><g><g><path d="M470.21,256c0,1.9-0.021,3.79-0.08,5.67c-1.42,55.102-23.54,106.69-62.66,145.802      c-40.45,40.46-94.25,62.74-151.47,62.74c-57.222,0-111.021-22.28-151.472-62.74C65.41,368.361,43.29,316.77,41.87,261.67      c-0.062-1.88-0.08-3.77-0.08-5.67c0-57.22,22.278-111.01,62.738-151.47C144.98,64.07,198.78,41.79,256,41.79      c57.22,0,111.02,22.28,151.47,62.74C447.93,144.99,470.21,198.78,470.21,256z" fill="#F3B81A"/><g><g><path d="M407.47,104.53C367.02,64.07,313.22,41.79,256,41.79c-57.222,0-111.021,22.28-151.472,62.74        C64.07,144.99,41.79,198.78,41.79,256c0,1.9,0.02,3.79,0.08,5.67c1.42,55.102,23.54,106.69,62.658,145.802        c40.45,40.46,94.25,62.74,151.472,62.74c57.22,0,111.02-22.28,151.47-62.74c39.12-39.109,61.24-90.7,62.66-145.802        c0.061-1.88,0.08-3.77,0.08-5.67C470.21,198.78,447.93,144.99,407.47,104.53z M256,460.212        c-94.602,0-174.38-64.662-197.472-152.11C54.13,291.47,51.79,274,51.79,256C51.79,143.4,143.4,51.79,256,51.79        c112.6,0,204.21,91.61,204.21,204.21c0,18-2.342,35.472-6.74,52.102C430.38,395.55,350.6,460.212,256,460.212z" fill="#5E2B16"/></g></g></g></g></g></g><g><g><g><path d="M162.301,246.642l-4.631-8.863l40.354-21.084h-45.259v-10h65.626c2.302,0,4.307,1.572,4.856,3.808     s-0.5,4.557-2.541,5.624L162.301,246.642z" fill="#5E2B16"/></g><g><path d="M218.39,216.695h-65.626v-10h45.259l-40.354-21.084l4.631-8.863l58.405,30.516     c2.041,1.066,3.089,3.388,2.541,5.624S220.693,216.695,218.39,216.695z" fill="#5E2B16"/></g></g><g><g><path d="M349.7,246.642l-58.406-30.516c-2.04-1.066-3.089-3.388-2.54-5.624s2.553-3.808,4.855-3.808h65.627v10     h-45.26l40.354,21.084L349.7,246.642z" fill="#5E2B16"/></g><g><path d="M359.237,216.695H293.61c-2.303,0-4.307-1.572-4.855-3.808s0.5-4.557,2.54-5.624l58.406-30.516     l4.631,8.863l-40.354,21.084h45.26V216.695z" fill="#5E2B16"/></g></g></g><g><g><path d="M208.931,386.464c-28.711,0-52.069-29.115-52.069-64.902c0-2.762,2.239-5,5-5s5,2.238,5,5    c0,30.273,18.872,54.902,42.069,54.902S251,351.835,251,321.561c0-2.762,2.239-5,5-5c2.762,0,5,2.238,5,5    C261,357.348,237.642,386.464,208.931,386.464z" fill="#5E2C17"/></g><g><path d="M303.07,386.464c-28.711,0-52.069-29.115-52.069-64.902c0-2.762,2.239-5,5-5c2.762,0,5,2.238,5,5    c0,30.273,18.872,54.902,42.069,54.902s42.069-24.629,42.069-54.902c0-2.762,2.238-5,5-5s5,2.238,5,5    C355.139,357.348,331.781,386.464,303.07,386.464z" fill="#5E2C17"/></g></g></svg>